<svg width="57" height="58" viewBox="0 0 57 58" fill="none" xmlns="http://www.w3.org/2000/svg">
<path id="Vector" d="M16.504 9.23019C18.2719 8.15876 20.1736 7.33142 22.1584 6.77019L23.3136 1.12449L32.7498 0.952286L34.1117 6.56109C36.1119 7.05998 38.0378 7.82516 39.8391 8.83658L44.6058 5.67549L51.4032 12.3175L48.4483 17.2375C49.5081 19.0211 50.3261 20.9407 50.8803 22.9447L56.4618 24.1132L56.632 33.658L51.0871 35.0233C50.5959 37.0472 49.8393 38.9956 48.8374 40.8166L51.9626 45.6505L45.3962 52.5139L40.5322 49.525C38.7689 50.597 36.8711 51.4244 34.8899 51.985L33.6739 57.6307L24.2378 57.8029L22.8759 52.1941C20.8795 51.6951 18.9576 50.9299 17.1606 49.9186L12.3818 53.0797L5.56001 46.45L8.51488 41.53C7.45565 39.7417 6.63773 37.8182 6.08288 35.8105L0.501447 34.5805L0.331207 25.0357L5.87616 23.6581C6.36938 21.6348 7.12586 19.6867 8.12577 17.8648L5.00064 13.0309L11.64 6.24129L16.504 9.23019ZM21.5382 21.9484C20.1461 23.4055 19.2124 25.2474 18.8551 27.2413C18.4979 29.2352 18.7332 31.2914 19.5312 33.1501C20.3292 35.0087 21.6542 36.5862 23.3386 37.6832C25.0229 38.7802 26.991 39.3473 28.994 39.3129C30.997 39.2785 32.945 38.6441 34.5915 37.4899C36.2381 36.3358 37.5093 34.7137 38.2445 32.8287C38.9797 30.9437 39.1459 28.8806 38.7219 26.9001C38.298 24.9197 37.303 23.1109 35.8627 21.7024C34.9045 20.7611 33.7719 20.0205 32.53 19.5232C31.288 19.0259 29.9612 18.7817 28.6256 18.8045C27.2901 18.8274 25.9722 19.1169 24.7476 19.6564C23.523 20.1959 22.4158 20.9748 21.4896 21.9484H21.5382Z" fill="#E0E0E0"/>
</svg>
